<?xml version="1.0" standalone="no"?><!DOCTYPE svg PUBLIC "-//W3C//DTD SVG 1.1//EN" "http://www.w3.org/Graphics/SVG/1.1/DTD/svg11.dtd"><svg t="1617346110195" class="icon" viewBox="0 0 1024 1024" version="1.1" xmlns="http://www.w3.org/2000/svg" p-id="1838" xmlns:xlink="http://www.w3.org/1999/xlink" width="200" height="200"><defs><style type="text/css"></style></defs><path d="M819.2 174.08a30.72 30.72 0 0 1 30.69952 29.568L849.92 204.8v153.6a30.72 30.72 0 0 1-61.41952 1.152L788.48 358.4V235.52h-122.88a30.72 30.72 0 0 1-30.69952-29.568L634.88 204.8a30.72 30.72 0 0 1 29.568-30.69952L665.6 174.08h153.6z" fill="#000000" p-id="1839"></path><path d="M797.47584 183.07584a30.72 30.72 0 0 1 44.34432 42.51136l-0.896 0.93696-215.04 215.04a30.72 30.72 0 0 1-44.34432-42.51136l0.896-0.93696 215.04-215.04zM204.8 634.88a30.72 30.72 0 0 1 30.69952 29.568L235.52 665.6v122.88h122.88a30.72 30.72 0 0 1 30.69952 29.568L389.12 819.2a30.72 30.72 0 0 1-29.568 30.69952L358.4 849.92H204.8a30.72 30.72 0 0 1-30.69952-29.568L174.08 819.2v-153.6a30.72 30.72 0 0 1 30.72-30.72z" fill="#000000" p-id="1840"></path><path d="M398.11584 582.43584a30.72 30.72 0 0 1 44.34432 42.51136l-0.896 0.93696-215.04 215.04a30.72 30.72 0 0 1-44.34432-42.51136l0.896-0.93696 215.04-215.04zM819.2 634.88a30.72 30.72 0 0 1 30.69952 29.568L849.92 665.6v153.6a30.72 30.72 0 0 1-29.568 30.69952L819.2 849.92h-153.6a30.72 30.72 0 0 1-1.152-61.41952L665.6 788.48h122.88v-122.88a30.72 30.72 0 0 1 29.568-30.69952L819.2 634.88z" fill="#000000" p-id="1841"></path><path d="M582.43584 582.43584a30.72 30.72 0 0 1 42.51136-0.896l0.93696 0.896 215.04 215.04a30.72 30.72 0 0 1-42.51136 44.34432l-0.93696-0.896-215.04-215.04a30.72 30.72 0 0 1 0-43.44832zM358.4 174.08a30.72 30.72 0 0 1 1.152 61.41952L358.4 235.52H235.52v122.88a30.72 30.72 0 0 1-29.568 30.69952L204.8 389.12a30.72 30.72 0 0 1-30.69952-29.568L174.08 358.4V204.8a30.72 30.72 0 0 1 29.568-30.69952L204.8 174.08h153.6z" fill="#000000" p-id="1842"></path><path d="M183.07584 183.07584a30.72 30.72 0 0 1 42.51136-0.896l0.93696 0.896 215.04 215.04a30.72 30.72 0 0 1-42.51136 44.34432l-0.93696-0.896-215.04-215.04a30.72 30.72 0 0 1 0-43.44832z" fill="#000000" p-id="1843"></path></svg>