<?xml version="1.0" standalone="no"?><!DOCTYPE svg PUBLIC "-//W3C//DTD SVG 1.1//EN" "http://www.w3.org/Graphics/SVG/1.1/DTD/svg11.dtd"><svg t="1617346119475" class="icon" viewBox="0 0 1024 1024" version="1.1" xmlns="http://www.w3.org/2000/svg" p-id="1989" xmlns:xlink="http://www.w3.org/1999/xlink" width="200" height="200"><defs><style type="text/css"></style></defs><path d="M604.16 235.52a30.72 30.72 0 0 1 30.69952 29.568L634.88 266.24v122.88h122.88a30.72 30.72 0 0 1 30.69952 29.568L788.48 419.84a30.72 30.72 0 0 1-29.568 30.69952L757.76 450.56h-153.6a30.72 30.72 0 0 1-30.69952-29.568L573.44 419.84V266.24a30.72 30.72 0 0 1 30.72-30.72z" fill="#000000" p-id="1990"></path><path d="M797.47584 183.07584a30.72 30.72 0 0 1 44.34432 42.51136l-0.896 0.93696-215.04 215.04a30.72 30.72 0 0 1-44.34432-42.51136l0.896-0.93696 215.04-215.04zM419.84 573.44a30.72 30.72 0 0 1 30.69952 29.568L450.56 604.16v153.6a30.72 30.72 0 0 1-61.41952 1.152L389.12 757.76v-122.88H266.24a30.72 30.72 0 0 1-30.69952-29.568L235.52 604.16a30.72 30.72 0 0 1 29.568-30.69952L266.24 573.44h153.6z" fill="#000000" p-id="1991"></path><path d="M398.11584 582.43584a30.72 30.72 0 0 1 44.34432 42.51136l-0.896 0.93696-215.04 215.04a30.72 30.72 0 0 1-44.34432-42.51136l0.896-0.93696 215.04-215.04zM757.76 573.44a30.72 30.72 0 0 1 1.152 61.41952L757.76 634.88h-122.88v122.88a30.72 30.72 0 0 1-29.568 30.69952L604.16 788.48a30.72 30.72 0 0 1-30.69952-29.568L573.44 757.76v-153.6a30.72 30.72 0 0 1 29.568-30.69952L604.16 573.44h153.6z" fill="#000000" p-id="1992"></path><path d="M582.43584 582.43584a30.72 30.72 0 0 1 42.51136-0.896l0.93696 0.896 215.04 215.04a30.72 30.72 0 0 1-42.51136 44.34432l-0.93696-0.896-215.04-215.04a30.72 30.72 0 0 1 0-43.44832zM419.84 235.52a30.72 30.72 0 0 1 30.69952 29.568L450.56 266.24v153.6a30.72 30.72 0 0 1-29.568 30.69952L419.84 450.56H266.24a30.72 30.72 0 0 1-1.152-61.41952L266.24 389.12h122.88V266.24a30.72 30.72 0 0 1 29.568-30.69952L419.84 235.52z" fill="#000000" p-id="1993"></path><path d="M183.07584 183.07584a30.72 30.72 0 0 1 42.51136-0.896l0.93696 0.896 215.04 215.04a30.72 30.72 0 0 1-42.51136 44.34432l-0.93696-0.896-215.04-215.04a30.72 30.72 0 0 1 0-43.44832z" fill="#000000" p-id="1994"></path></svg>